# xmcd
#
# Track frame offsets:
#	150
#	17984
#	32715
#	49310
#	69078
#	86297
#	102308
#	115908
#	127743
#	147663
#	169079
#	189743
#	203564
#
# Disc length: 3040 seconds
# Revision: 0
# Processed by: cddbd v1.5.2PL0 Copyright (c) Steve Scherf et al.
# Submitted via: dBpowerAMP V12.0
#
DISCID=af0bde0d
DTITLE=Tom Jones - Spirit In The Room
DYEAR=2012
DGENRE=Blues
TTITLE0=Tower Of Song
TTITLE1=(I Want To) Come Home
TTITLE2=Hit Or Miss
TTITLE3=Love and Blessings
TTITLE4=Soul Of A Man
TTITLE5=Bad As Me
TTITLE6=Dimming Of The Day
TTITLE7=Traveling Shoes
TTITLE8=All Blues Hail Mary
TTITLE9=Charlie Darwin
TTITLE10=Just Dropped In
TTITLE11=Lone Pilgrim
TTITLE12=When The Deal Goes Down
EXTD=
EXTT0=
EXTT1=
EXTT2=
EXTT3=
EXTT4=
EXTT5=
EXTT6=
EXTT7=
EXTT8=
EXTT9=
EXTT10=
EXTT11=
EXTT12=
PLAYORDER=
